<svg width="1440" height="1016" viewBox="0 0 1440 1016" fill="none" xmlns="http://www.w3.org/2000/svg">
<g clip-path="url(#clip0_76_130)">
<rect width="1440" height="1016" fill="#EFF3FD"/>
<path d="M-1166 476.555C-1124.17 449.65 -954.67 307.701 -650.102 307.701C-269.392 307.701 -56.6064 638.451 517.49 365.223" stroke="#B8FFDB" stroke-opacity="0.86" stroke-width="1.5"/>
<path d="M-1166 179.854C-1124.17 152.949 -954.67 11 -650.102 11C-269.392 11 -56.6064 341.75 517.49 68.5218" stroke="#B8FFDB" stroke-opacity="0.86" stroke-width="1.5"/>
<path d="M-1166 466.984C-1124.17 440.079 -954.67 298.13 -650.102 298.13C-269.392 298.13 -56.6064 628.88 517.49 355.652" stroke="#B8FFDB" stroke-opacity="0.86" stroke-width="1.5"/>
<path d="M-1166 457.413C-1124.17 430.508 -954.67 288.559 -650.102 288.559C-269.392 288.559 -56.6064 619.309 517.49 346.081" stroke="#B8FFDB" stroke-opacity="0.86" stroke-width="1.5"/>
<path d="M-1166 447.842C-1124.17 420.937 -954.67 278.988 -650.102 278.988C-269.392 278.988 -56.6064 609.738 517.49 336.51" stroke="#B8FFDB" stroke-opacity="0.86" stroke-width="1.5"/>
<path d="M-1166 438.271C-1124.17 411.366 -954.67 269.417 -650.102 269.417C-269.392 269.417 -56.6064 600.167 517.49 326.939" stroke="#B8FFDB" stroke-opacity="0.86" stroke-width="1.5"/>
<path d="M-1166 428.7C-1124.17 401.795 -954.67 259.846 -650.102 259.846C-269.392 259.846 -56.6064 590.596 517.49 317.368" stroke="#B8FFDB" stroke-opacity="0.86" stroke-width="1.5"/>
<path d="M-1166 419.129C-1124.17 392.224 -954.67 250.275 -650.102 250.275C-269.392 250.275 -56.6064 581.025 517.49 307.797" stroke="#B8FFDB" stroke-opacity="0.86" stroke-width="1.5"/>
<path d="M-1166 409.558C-1124.17 382.653 -954.67 240.704 -650.102 240.704C-269.392 240.704 -56.6064 571.454 517.49 298.226" stroke="#B8FFDB" stroke-opacity="0.86" stroke-width="1.5"/>
<path d="M-1166 399.987C-1124.17 373.082 -954.67 231.133 -650.102 231.133C-269.392 231.133 -56.6064 561.883 517.49 288.655" stroke="#B8FFDB" stroke-opacity="0.86" stroke-width="1.5"/>
<path d="M-1166 390.416C-1124.17 363.511 -954.67 221.562 -650.102 221.562C-269.392 221.562 -56.6064 552.312 517.49 279.084" stroke="#B8FFDB" stroke-opacity="0.86" stroke-width="1.5"/>
<path d="M-1166 380.845C-1124.17 353.94 -954.67 211.991 -650.102 211.991C-269.392 211.991 -56.6064 542.741 517.49 269.513" stroke="#B8FFDB" stroke-opacity="0.86" stroke-width="1.5"/>
<path d="M-1166 371.274C-1124.17 344.369 -954.67 202.42 -650.102 202.42C-269.392 202.42 -56.6064 533.17 517.49 259.942" stroke="#B8FFDB" stroke-opacity="0.86" stroke-width="1.5"/>
<path d="M-1166 361.703C-1124.17 334.798 -954.67 192.849 -650.102 192.849C-269.392 192.849 -56.6064 523.599 517.49 250.371" stroke="#B8FFDB" stroke-opacity="0.86" stroke-width="1.5"/>
<path d="M-1166 352.132C-1124.17 325.227 -954.67 183.278 -650.102 183.278C-269.392 183.278 -56.6064 514.028 517.49 240.8" stroke="#B8FFDB" stroke-opacity="0.86" stroke-width="1.5"/>
<path d="M-1166 342.561C-1124.17 315.656 -954.67 173.707 -650.102 173.707C-269.392 173.707 -56.6064 504.457 517.49 231.229" stroke="#B8FFDB" stroke-opacity="0.86" stroke-width="1.5"/>
<path d="M-1166 332.99C-1124.17 306.085 -954.67 164.136 -650.102 164.136C-269.392 164.136 -56.6064 494.886 517.49 221.658" stroke="#B8FFDB" stroke-opacity="0.86" stroke-width="1.5"/>
<path d="M-1166 323.419C-1124.17 296.514 -954.67 154.565 -650.102 154.565C-269.392 154.565 -56.6064 485.315 517.49 212.087" stroke="#B8FFDB" stroke-opacity="0.86" stroke-width="1.5"/>
<path d="M-1166 313.848C-1124.17 286.943 -954.67 144.994 -650.102 144.994C-269.392 144.994 -56.6063 475.744 517.49 202.516" stroke="#B8FFDB" stroke-opacity="0.86" stroke-width="1.5"/>
<path d="M-1166 304.277C-1124.17 277.372 -954.67 135.423 -650.102 135.423C-269.392 135.423 -56.6064 466.173 517.49 192.945" stroke="#B8FFDB" stroke-opacity="0.86" stroke-width="1.5"/>
<path d="M-1166 294.706C-1124.17 267.801 -954.67 125.852 -650.102 125.852C-269.392 125.852 -56.6064 456.602 517.49 183.374" stroke="#B8FFDB" stroke-opacity="0.86" stroke-width="1.5"/>
<path d="M-1166 285.135C-1124.17 258.23 -954.67 116.281 -650.102 116.281C-269.392 116.281 -56.6064 447.031 517.49 173.803" stroke="#B8FFDB" stroke-opacity="0.86" stroke-width="1.5"/>
<path d="M-1166 275.564C-1124.17 248.659 -954.67 106.71 -650.102 106.71C-269.392 106.71 -56.6064 437.46 517.49 164.231" stroke="#B8FFDB" stroke-opacity="0.86" stroke-width="1.5"/>
<path d="M-1166 265.993C-1124.17 239.088 -954.67 97.1392 -650.102 97.1392C-269.392 97.1392 -56.6064 427.889 517.49 154.661" stroke="#B8FFDB" stroke-opacity="0.86" stroke-width="1.5"/>
<path d="M-1166 256.422C-1124.17 229.517 -954.67 87.5681 -650.102 87.5681C-269.392 87.5681 -56.6064 418.318 517.49 145.09" stroke="#B8FFDB" stroke-opacity="0.86" stroke-width="1.5"/>
<path d="M-1166 246.851C-1124.17 219.946 -954.67 77.9968 -650.102 77.9968C-269.392 77.9968 -56.6064 408.747 517.49 135.519" stroke="#B8FFDB" stroke-opacity="0.86" stroke-width="1.5"/>
<path d="M-1166 237.28C-1124.17 210.375 -954.67 68.4258 -650.102 68.4258C-269.392 68.4258 -56.6064 399.176 517.49 125.948" stroke="#B8FFDB" stroke-opacity="0.86" stroke-width="1.5"/>
<path d="M-1166 227.709C-1124.17 200.804 -954.67 58.8551 -650.102 58.8551C-269.392 58.8551 -56.6064 389.605 517.49 116.377" stroke="#B8FFDB" stroke-opacity="0.86" stroke-width="1.5"/>
<path d="M-1166 218.138C-1124.17 191.233 -954.67 49.2839 -650.102 49.2839C-269.392 49.2839 -56.6064 380.034 517.49 106.806" stroke="#B8FFDB" stroke-opacity="0.86" stroke-width="1.5"/>
<path d="M-1166 208.567C-1124.17 181.662 -954.67 39.7129 -650.102 39.7129C-269.392 39.7129 -56.6064 370.463 517.49 97.2347" stroke="#B8FFDB" stroke-opacity="0.86" stroke-width="1.5"/>
<path d="M-1166 198.996C-1124.17 172.091 -954.67 30.1417 -650.102 30.1417C-269.392 30.1417 -56.6064 360.892 517.49 87.6635" stroke="#B8FFDB" stroke-opacity="0.86" stroke-width="1.5"/>
<path d="M-1166 189.425C-1124.17 162.52 -954.67 20.571 -650.102 20.571C-269.392 20.571 -56.6064 351.321 517.49 78.0928" stroke="#B8FFDB" stroke-opacity="0.86" stroke-width="1.5"/>
<g opacity="0.7">
<mask id="mask0_76_130" style="mask-type:alpha" maskUnits="userSpaceOnUse" x="30" y="-65" width="1456" height="1081">
<rect x="30" y="-65" width="1456" height="1081" fill="white"/>
</mask>
<g mask="url(#mask0_76_130)">
<g filter="url(#filter0_f_76_130)">
<path d="M-4.30277 365.036L250.058 365.036C250.058 365.036 758.779 961.645 -4.30273 1096.64L-4.30277 365.036Z" fill="#EEF3FF"/>
</g>
<g filter="url(#filter1_f_76_130)">
<path d="M1507.27 1041.13L30.4712 1041.13C30.4712 1041.13 1113.73 192.236 1357.07 553.352C1587.3 895.022 1507.27 1041.13 1507.27 1041.13Z" fill="#5280FF" fill-opacity="0.06"/>
</g>
<g filter="url(#filter2_f_76_130)">
<path d="M706.507 671.105L1218.88 1181.55C1218.88 1181.55 845.422 870.674 510.717 1161.2L706.507 671.105Z" fill="#00FFFF" fill-opacity="0.04"/>
</g>
<g filter="url(#filter3_f_76_130)">
<path d="M265.09 477.353L-364.429 114.463C-364.429 114.463 78.2823 319.873 324.972 -45.7817L265.09 477.353Z" fill="#00FFFF" fill-opacity="0.04"/>
</g>
<g filter="url(#filter4_f_76_130)">
<path d="M19.832 337.649L19.832 -67.4084C19.832 -67.4084 278.716 229.708 168.588 296.451C64.3909 359.6 19.832 337.649 19.832 337.649Z" fill="#5280FF" fill-opacity="0.08"/>
</g>
</g>
<path d="M517 365.555C558.83 338.65 728.33 196.701 1032.9 196.701C1413.61 196.701 1626.39 527.451 2200.49 254.223" stroke="#B8FFDB" stroke-opacity="0.86" stroke-width="1.5"/>
<path d="M517 68.8543C558.83 41.9489 728.33 -100 1032.9 -100C1413.61 -100 1626.39 230.75 2200.49 -42.4782" stroke="#B8FFDB" stroke-opacity="0.86" stroke-width="1.5"/>
<path d="M517 355.984C558.83 329.079 728.33 187.13 1032.9 187.13C1413.61 187.13 1626.39 517.88 2200.49 244.652" stroke="#B8FFDB" stroke-opacity="0.86" stroke-width="1.5"/>
<path d="M517 346.413C558.83 319.508 728.33 177.559 1032.9 177.559C1413.61 177.559 1626.39 508.309 2200.49 235.081" stroke="#B8FFDB" stroke-opacity="0.86" stroke-width="1.5"/>
<path d="M517 336.842C558.83 309.937 728.33 167.988 1032.9 167.988C1413.61 167.988 1626.39 498.738 2200.49 225.51" stroke="#B8FFDB" stroke-opacity="0.86" stroke-width="1.5"/>
<path d="M517 327.271C558.83 300.366 728.33 158.417 1032.9 158.417C1413.61 158.417 1626.39 489.167 2200.49 215.939" stroke="#B8FFDB" stroke-opacity="0.86" stroke-width="1.5"/>
<path d="M517 317.7C558.83 290.795 728.33 148.846 1032.9 148.846C1413.61 148.846 1626.39 479.596 2200.49 206.368" stroke="#B8FFDB" stroke-opacity="0.86" stroke-width="1.5"/>
<path d="M517 308.129C558.83 281.224 728.33 139.275 1032.9 139.275C1413.61 139.275 1626.39 470.025 2200.49 196.797" stroke="#B8FFDB" stroke-opacity="0.86" stroke-width="1.5"/>
<path d="M517 298.558C558.83 271.653 728.33 129.704 1032.9 129.704C1413.61 129.704 1626.39 460.454 2200.49 187.226" stroke="#B8FFDB" stroke-opacity="0.86" stroke-width="1.5"/>
<path d="M517 288.987C558.83 262.082 728.33 120.133 1032.9 120.133C1413.61 120.133 1626.39 450.883 2200.49 177.655" stroke="#B8FFDB" stroke-opacity="0.86" stroke-width="1.5"/>
<path d="M517 279.416C558.83 252.511 728.33 110.562 1032.9 110.562C1413.61 110.562 1626.39 441.312 2200.49 168.084" stroke="#B8FFDB" stroke-opacity="0.86" stroke-width="1.5"/>
<path d="M517 269.845C558.83 242.94 728.33 100.991 1032.9 100.991C1413.61 100.991 1626.39 431.741 2200.49 158.513" stroke="#B8FFDB" stroke-opacity="0.86" stroke-width="1.5"/>
<path d="M517 260.274C558.83 233.369 728.33 91.4202 1032.9 91.4202C1413.61 91.4202 1626.39 422.17 2200.49 148.942" stroke="#B8FFDB" stroke-opacity="0.86" stroke-width="1.5"/>
<path d="M517 250.703C558.83 223.798 728.33 81.8491 1032.9 81.8491C1413.61 81.8491 1626.39 412.599 2200.49 139.371" stroke="#B8FFDB" stroke-opacity="0.86" stroke-width="1.5"/>
<path d="M517 241.132C558.83 214.227 728.33 72.2778 1032.9 72.2778C1413.61 72.2778 1626.39 403.028 2200.49 129.8" stroke="#B8FFDB" stroke-opacity="0.86" stroke-width="1.5"/>
<path d="M517 231.561C558.83 204.656 728.33 62.707 1032.9 62.707C1413.61 62.707 1626.39 393.457 2200.49 120.229" stroke="#B8FFDB" stroke-opacity="0.86" stroke-width="1.5"/>
<path d="M517 221.99C558.83 195.085 728.33 53.1361 1032.9 53.1361C1413.61 53.1361 1626.39 383.886 2200.49 110.658" stroke="#B8FFDB" stroke-opacity="0.86" stroke-width="1.5"/>
<path d="M517 212.419C558.83 185.514 728.33 43.5649 1032.9 43.5649C1413.61 43.5649 1626.39 374.315 2200.49 101.087" stroke="#B8FFDB" stroke-opacity="0.86" stroke-width="1.5"/>
<path d="M517 202.848C558.83 175.943 728.33 33.9939 1032.9 33.9939C1413.61 33.9939 1626.39 364.744 2200.49 91.5157" stroke="#B8FFDB" stroke-opacity="0.86" stroke-width="1.5"/>
<path d="M517 193.277C558.83 166.372 728.33 24.423 1032.9 24.423C1413.61 24.423 1626.39 355.173 2200.49 81.9447" stroke="#B8FFDB" stroke-opacity="0.86" stroke-width="1.5"/>
<path d="M517 183.706C558.83 156.801 728.33 14.8521 1032.9 14.8521C1413.61 14.8521 1626.39 345.602 2200.49 72.3738" stroke="#B8FFDB" stroke-opacity="0.86" stroke-width="1.5"/>
<path d="M517 174.135C558.83 147.23 728.33 5.28101 1032.9 5.28101C1413.61 5.28101 1626.39 336.031 2200.49 62.8028" stroke="#B8FFDB" stroke-opacity="0.86" stroke-width="1.5"/>
<path d="M517 164.564C558.83 137.659 728.33 -4.29028 1032.9 -4.29028C1413.61 -4.29028 1626.39 326.46 2200.49 53.2315" stroke="#B8FFDB" stroke-opacity="0.86" stroke-width="1.5"/>
<path d="M517 154.993C558.83 128.088 728.33 -13.8608 1032.9 -13.8608C1413.61 -13.8608 1626.39 316.889 2200.49 43.6609" stroke="#B8FFDB" stroke-opacity="0.86" stroke-width="1.5"/>
<path d="M517 145.422C558.83 118.517 728.33 -23.432 1032.9 -23.432C1413.61 -23.432 1626.39 307.318 2200.49 34.0898" stroke="#B8FFDB" stroke-opacity="0.86" stroke-width="1.5"/>
<path d="M517 135.851C558.83 108.946 728.33 -33.0032 1032.9 -33.0032C1413.61 -33.0032 1626.39 297.747 2200.49 24.5186" stroke="#B8FFDB" stroke-opacity="0.86" stroke-width="1.5"/>
<path d="M517 126.28C558.83 99.3747 728.33 -42.5742 1032.9 -42.5742C1413.61 -42.5742 1626.39 288.176 2200.49 14.9476" stroke="#B8FFDB" stroke-opacity="0.86" stroke-width="1.5"/>
<path d="M517 116.709C558.83 89.804 728.33 -52.1449 1032.9 -52.1449C1413.61 -52.1449 1626.39 278.605 2200.49 5.37688" stroke="#B8FFDB" stroke-opacity="0.86" stroke-width="1.5"/>
<path d="M517 107.138C558.83 80.2328 728.33 -61.7161 1032.9 -61.7161C1413.61 -61.7161 1626.39 269.034 2200.49 -4.19429" stroke="#B8FFDB" stroke-opacity="0.86" stroke-width="1.5"/>
<path d="M517 97.5671C558.83 70.6618 728.33 -71.2871 1032.9 -71.2871C1413.61 -71.2871 1626.39 259.463 2200.49 -13.7653" stroke="#B8FFDB" stroke-opacity="0.86" stroke-width="1.5"/>
<path d="M517 87.996C558.83 61.0906 728.33 -80.8583 1032.9 -80.8583C1413.61 -80.8583 1626.39 249.892 2200.49 -23.3365" stroke="#B8FFDB" stroke-opacity="0.86" stroke-width="1.5"/>
<path d="M517 78.4253C558.83 51.5199 728.33 -90.429 1032.9 -90.429C1413.61 -90.429 1626.39 240.321 2200.49 -32.9072" stroke="#B8FFDB" stroke-opacity="0.86" stroke-width="1.5"/>
</g>
</g>
<defs>
<filter id="filter0_f_76_130" x="-172.147" y="197.192" width="756.161" height="1067.29" filterUnits="userSpaceOnUse" color-interpolation-filters="sRGB">
<feFlood flood-opacity="0" result="BackgroundImageFix"/>
<feBlend mode="normal" in="SourceGraphic" in2="BackgroundImageFix" result="shape"/>
<feGaussianBlur stdDeviation="83.9219" result="effect1_foregroundBlur_76_130"/>
</filter>
<filter id="filter1_f_76_130" x="-137.373" y="296.057" width="1825.95" height="912.92" filterUnits="userSpaceOnUse" color-interpolation-filters="sRGB">
<feFlood flood-opacity="0" result="BackgroundImageFix"/>
<feBlend mode="normal" in="SourceGraphic" in2="BackgroundImageFix" result="shape"/>
<feGaussianBlur stdDeviation="83.9219" result="effect1_foregroundBlur_76_130"/>
</filter>
<filter id="filter2_f_76_130" x="342.873" y="503.261" width="1043.85" height="846.131" filterUnits="userSpaceOnUse" color-interpolation-filters="sRGB">
<feFlood flood-opacity="0" result="BackgroundImageFix"/>
<feBlend mode="normal" in="SourceGraphic" in2="BackgroundImageFix" result="shape"/>
<feGaussianBlur stdDeviation="83.9219" result="effect1_foregroundBlur_76_130"/>
</filter>
<filter id="filter3_f_76_130" x="-532.273" y="-213.626" width="1025.09" height="858.822" filterUnits="userSpaceOnUse" color-interpolation-filters="sRGB">
<feFlood flood-opacity="0" result="BackgroundImageFix"/>
<feBlend mode="normal" in="SourceGraphic" in2="BackgroundImageFix" result="shape"/>
<feGaussianBlur stdDeviation="83.9219" result="effect1_foregroundBlur_76_130"/>
</filter>
<filter id="filter4_f_76_130" x="-148.012" y="-235.252" width="511.723" height="744.437" filterUnits="userSpaceOnUse" color-interpolation-filters="sRGB">
<feFlood flood-opacity="0" result="BackgroundImageFix"/>
<feBlend mode="normal" in="SourceGraphic" in2="BackgroundImageFix" result="shape"/>
<feGaussianBlur stdDeviation="83.9219" result="effect1_foregroundBlur_76_130"/>
</filter>
<clipPath id="clip0_76_130">
<rect width="1440" height="1016" fill="white"/>
</clipPath>
</defs>
</svg>
