<svg width="162" height="54" viewBox="0 0 162 54" fill="none" xmlns="http://www.w3.org/2000/svg">
<rect width="162" height="54" rx="27" fill="url(#paint0_linear_54_328)"/>
<path d="M79.7867 34.28C78.9867 34.28 78.2201 34.2133 77.4867 34.08C76.7534 33.96 76.0867 33.7867 75.4867 33.56C74.8867 33.32 74.3734 33.06 73.9467 32.78L75.5067 29.82C75.9867 30.1133 76.4801 30.3667 76.9867 30.58C77.5067 30.78 78.0334 30.9333 78.5667 31.04C79.1001 31.1467 79.6334 31.2 80.1667 31.2C80.6734 31.2 81.1067 31.1533 81.4667 31.06C81.8267 30.9533 82.1001 30.8067 82.2867 30.62C82.4734 30.4333 82.5667 30.2133 82.5667 29.96C82.5667 29.68 82.4401 29.46 82.1867 29.3C81.9467 29.1267 81.6267 28.98 81.2267 28.86C80.8267 28.74 80.3801 28.62 79.8867 28.5C79.4067 28.3667 78.9201 28.2133 78.4267 28.04C77.9467 27.8533 77.5067 27.6267 77.1067 27.36C76.7067 27.08 76.3801 26.7267 76.1267 26.3C75.8867 25.8733 75.7667 25.3467 75.7667 24.72C75.7667 23.7067 76.0401 22.8267 76.5867 22.08C77.1334 21.3333 77.9067 20.7533 78.9067 20.34C79.9201 19.9267 81.1134 19.72 82.4867 19.72C83.4867 19.72 84.4201 19.8267 85.2867 20.04C86.1534 20.24 86.9001 20.5333 87.5267 20.92L86.0867 23.86C85.5401 23.5133 84.9334 23.2533 84.2667 23.08C83.6134 22.8933 82.9401 22.8 82.2467 22.8C81.7134 22.8 81.2534 22.86 80.8667 22.98C80.4934 23.1 80.2067 23.2667 80.0067 23.48C79.8201 23.68 79.7267 23.9067 79.7267 24.16C79.7267 24.4267 79.8467 24.6467 80.0867 24.82C80.3267 24.9933 80.6467 25.14 81.0467 25.26C81.4601 25.38 81.9067 25.5067 82.3867 25.64C82.8801 25.76 83.3667 25.9067 83.8467 26.08C84.3267 26.24 84.7734 26.46 85.1867 26.74C85.6001 27.0067 85.9267 27.3467 86.1667 27.76C86.4067 28.1733 86.5267 28.6867 86.5267 29.3C86.5267 30.3 86.2534 31.1733 85.7067 31.92C85.1601 32.6667 84.3801 33.2467 83.3667 33.66C82.3534 34.0733 81.1601 34.28 79.7867 34.28ZM86.1559 34L95.1359 20H99.0359L102.416 34H98.4759L95.9759 21.88H97.5359L90.3359 34H86.1559ZM90.0759 31.28L91.6759 28.36H98.5159L98.9559 31.28H90.0759ZM103.879 34L106.679 20H109.899L113.759 29.54H112.059L119.539 20H122.919L120.159 34H116.499L118.159 25.52L118.819 25.5L113.279 32.62H111.539L108.519 25.48L109.219 25.54L107.519 34H103.879ZM123.281 34L126.081 20H130.041L127.241 34H123.281ZM133.338 34L135.518 23.14H131.218L131.858 20H144.398L143.758 23.14H139.478L137.298 34H133.338Z" fill="white"/>
<circle cx="30" cy="27" r="21" fill="white"/>
<path d="M36.4338 19H21.5027C20.4762 19 19.6364 19.85 19.6364 20.8889V31.2778C19.6364 32.3167 20.4762 33.1667 21.5027 33.1667H24.3023C23.7891 33.6861 23.3691 33.9883 23.3691 34.6683C23.3691 35.405 23.957 36 24.6849 36H33.2423C33.9702 36 34.5581 35.405 34.5581 34.6683C34.5581 33.9883 34.1475 33.6956 33.6249 33.1667H36.4245C37.451 33.1667 38.2908 32.3167 38.2908 31.2778V20.8889C38.3002 19.85 37.4603 19 36.4338 19ZM36.4338 31.2778H21.5027V20.8889H36.4338V31.2778Z" fill="#249E5F"/>
<defs>
<linearGradient id="paint0_linear_54_328" x1="162" y1="27" x2="9.45445e-07" y2="27" gradientUnits="userSpaceOnUse">
<stop stop-color="#254E87"/>
<stop offset="1" stop-color="#249F5E"/>
</linearGradient>
</defs>
</svg>
