<svg width="29" height="28" viewBox="0 0 29 28" fill="none" xmlns="http://www.w3.org/2000/svg">
<path d="M12.801 27.4469L0.512039 15.2798C0.325843 15.0955 0.193643 14.8958 0.115441 14.6807C0.0384801 14.4656 0 14.2352 0 13.9894C0 13.7436 0.0384801 13.5131 0.115441 13.298C0.193643 13.083 0.325843 12.8833 0.512039 12.6989L12.801 0.53178C13.1423 0.193804 13.5687 0.0168279 14.0801 0.000850851C14.5928 -0.0138972 15.0353 0.163079 15.4077 0.53178C15.7801 0.869755 15.9744 1.29192 15.9905 1.79827C16.0054 2.30585 15.8266 2.74399 15.4543 3.11269L6.33066 12.1459H27.138C27.6656 12.1459 28.1081 12.3222 28.4656 12.6749C28.8219 13.0289 29 13.467 29 13.9894C29 14.5117 28.8219 14.9492 28.4656 15.3019C28.1081 15.6559 27.6656 15.8329 27.138 15.8329H6.33066L15.4543 24.866C15.7956 25.204 15.9744 25.6342 15.9905 26.1565C16.0054 26.6788 15.8266 27.109 15.4543 27.4469C15.1129 27.8156 14.6784 28 14.1509 28C13.6233 28 13.1734 27.8156 12.801 27.4469Z" fill="#23CE78"/>
</svg>
