<svg width="19" height="20" viewBox="0 0 19 20" fill="none" xmlns="http://www.w3.org/2000/svg">
<path d="M17.2727 6.54482C17.7308 6.54482 18.1702 6.72681 18.4941 7.05075C18.818 7.37469 19 7.81405 19 8.27218V11.7269C19 12.185 18.818 12.6244 18.4941 12.9483C18.1702 13.2723 17.7308 13.4542 17.2727 13.4542H16.3555C16.145 15.124 15.3324 16.6595 14.0701 17.7726C12.8079 18.8858 11.1829 19.5 9.5 19.5V17.7726C10.8743 17.7726 12.1923 17.2267 13.1641 16.2548C14.1359 15.283 14.6818 13.9649 14.6818 12.5906V7.4085C14.6818 6.03413 14.1359 4.71605 13.1641 3.74422C12.1923 2.77239 10.8743 2.22643 9.5 2.22643C8.1257 2.22643 6.80768 2.77239 5.8359 3.74422C4.86412 4.71605 4.31818 6.03413 4.31818 7.4085V13.4542H1.72727C1.26917 13.4542 0.829833 13.2723 0.505906 12.9483C0.18198 12.6244 0 12.185 0 11.7269V8.27218C0 7.81405 0.18198 7.37469 0.505906 7.05075C0.829833 6.72681 1.26917 6.54482 1.72727 6.54482H2.64445C2.85521 4.87524 3.66793 3.33994 4.93013 2.22701C6.19233 1.11408 7.81725 0.5 9.5 0.5C11.1827 0.5 12.8077 1.11408 14.0699 2.22701C15.3321 3.33994 16.1448 4.87524 16.3555 6.54482H17.2727ZM5.83818 13.2686L6.75364 11.8038C7.57675 12.3194 8.52873 12.5921 9.5 12.5906C10.4713 12.5921 11.4233 12.3194 12.2464 11.8038L13.1618 13.2686C12.0644 13.9562 10.7951 14.3199 9.5 14.3179C8.20494 14.3199 6.93564 13.9562 5.83818 13.2686Z" fill="black"/>
</svg>
