<svg width="40" height="40" viewBox="0 0 40 40" fill="none" xmlns="http://www.w3.org/2000/svg">
<path opacity="0.4" d="M34.85 18.533C34.85 26.683 28.9333 34.3164 20.85 36.5497C20.3 36.6997 19.7 36.6997 19.15 36.5497C11.0666 34.3164 5.14996 26.683 5.14996 18.533V11.2164C5.14996 9.84974 6.18332 8.29975 7.46665 7.78308L16.7499 3.98308C18.8333 3.13308 21.1833 3.13308 23.2666 3.98308L32.55 7.78308C33.8166 8.29975 34.8667 9.84974 34.8667 11.2164L34.85 18.533Z" fill="#00DEA3"/>
<path d="M24.1666 17.4998C24.1666 15.1998 22.3 13.3331 20 13.3331C17.7 13.3331 15.8333 15.1998 15.8333 17.4998C15.8333 19.3665 17.0666 20.9165 18.75 21.4498V25.8331C18.75 26.5165 19.3166 27.0831 20 27.0831C20.6833 27.0831 21.25 26.5165 21.25 25.8331V21.4498C22.9333 20.9165 24.1666 19.3665 24.1666 17.4998Z" fill="#00DEA3"/>
</svg>
