<svg width="40" height="39" viewBox="0 0 40 39" fill="none" xmlns="http://www.w3.org/2000/svg">
<path d="M20.0334 4.72876C14.5167 4.72876 10.0334 9.10001 10.0334 14.4788V19.175C10.0334 20.1663 9.60002 21.6775 9.08336 22.5225L7.16669 25.6263C5.98336 27.5438 6.80002 29.6725 8.96669 30.3875C16.15 32.7275 23.9 32.7275 31.0834 30.3875C33.1 29.7375 33.9834 27.4138 32.8834 25.6263L30.9667 22.5225C30.4667 21.6775 30.0334 20.1663 30.0334 19.175V14.4788C30.0334 9.11626 25.5334 4.72876 20.0334 4.72876Z" stroke="#333333" stroke-width="1.5" stroke-miterlimit="10" stroke-linecap="round"/>
<circle cx="27.5" cy="8.5" r="4" fill="#F23985"/>
<path d="M23.1166 5.20003C22.6 5.05378 22.0666 4.94003 21.5166 4.87503C19.9166 4.68003 18.3833 4.79378 16.95 5.20003C17.4333 3.99753 18.6333 3.15253 20.0333 3.15253C21.4333 3.15253 22.6333 3.99753 23.1166 5.20003Z" stroke="#333333" stroke-width="1.5" stroke-miterlimit="10" stroke-linecap="round" stroke-linejoin="round"/>
<path d="M25.0333 30.9725C25.0333 33.6537 22.7833 35.8475 20.0333 35.8475C18.6667 35.8475 17.4 35.295 16.5 34.4175C15.6 33.54 15.0333 32.305 15.0333 30.9725" stroke="#333333" stroke-width="1.5" stroke-miterlimit="10"/>
</svg>
