<svg width="20" height="20" viewBox="0 0 20 20" fill="none" xmlns="http://www.w3.org/2000/svg">
<path d="M15 10.5C13.6167 10.5 12.4377 10.0123 11.463 9.037C10.4877 8.06233 10 6.88333 10 5.5C10 4.13333 10.4833 2.95833 11.45 1.975C12.4167 0.991667 13.6 0.5 15 0.5C16.3833 0.5 17.5627 0.987333 18.538 1.962C19.5127 2.93733 20 4.11667 20 5.5C20 6.88333 19.5127 8.06233 18.538 9.037C17.5627 10.0123 16.3833 10.5 15 10.5ZM14.5 6.5H15.5V2.5H14.5V6.5ZM1 19.5C0.716667 19.5 0.479333 19.404 0.288 19.212C0.0960001 19.0207 0 18.7833 0 18.5V10.5L2.1 4.5C2.2 4.2 2.37933 3.95833 2.638 3.775C2.896 3.59167 3.18333 3.5 3.5 3.5H8.3C8.2 3.81667 8.125 4.14167 8.075 4.475C8.025 4.80833 8 5.15 8 5.5H3.85L2.8 8.5H8.675C8.85833 8.88333 9.07067 9.24167 9.312 9.575C9.554 9.90833 9.825 10.2167 10.125 10.5H2V15.5H16V12.425C16.35 12.375 16.6917 12.3 17.025 12.2C17.3583 12.1 17.6833 11.975 18 11.825V18.5C18 18.7833 17.904 19.0207 17.712 19.212C17.5207 19.404 17.2833 19.5 17 19.5H16C15.7167 19.5 15.4793 19.404 15.288 19.212C15.096 19.0207 15 18.7833 15 18.5V17.5H3V18.5C3 18.7833 2.90433 19.0207 2.713 19.212C2.521 19.404 2.28333 19.5 2 19.5H1ZM15 8.5C15.1333 8.5 15.25 8.45 15.35 8.35C15.45 8.25 15.5 8.13333 15.5 8C15.5 7.86667 15.45 7.75 15.35 7.65C15.25 7.55 15.1333 7.5 15 7.5C14.8667 7.5 14.75 7.55 14.65 7.65C14.55 7.75 14.5 7.86667 14.5 8C14.5 8.13333 14.55 8.25 14.65 8.35C14.75 8.45 14.8667 8.5 15 8.5ZM4.5 14.5C4.91667 14.5 5.27067 14.354 5.562 14.062C5.854 13.7707 6 13.4167 6 13C6 12.5833 5.854 12.2293 5.562 11.938C5.27067 11.646 4.91667 11.5 4.5 11.5C4.08333 11.5 3.72933 11.646 3.438 11.938C3.146 12.2293 3 12.5833 3 13C3 13.4167 3.146 13.7707 3.438 14.062C3.72933 14.354 4.08333 14.5 4.5 14.5ZM13.5 14.5C13.9167 14.5 14.2707 14.354 14.562 14.062C14.854 13.7707 15 13.4167 15 13C15 12.9167 14.996 12.8333 14.988 12.75C14.9793 12.6667 14.9583 12.5833 14.925 12.5C14.475 12.5 14.0377 12.4583 13.613 12.375C13.1877 12.2917 12.7833 12.1667 12.4 12C12.2667 12.1333 12.1667 12.2873 12.1 12.462C12.0333 12.6373 12 12.8167 12 13C12 13.4167 12.146 13.7707 12.438 14.062C12.7293 14.354 13.0833 14.5 13.5 14.5ZM2 15.5V10.5V15.5Z" fill="black"/>
</svg>
